<?xml version="1.0" encoding="UTF-8" standalone="no"?>
<svg
   width="512"
   height="512"
   viewBox="0 0 512 512"
   version="1.1"
   id="svg4"
   sodipodi:docname="hart.svg"
   inkscape:version="1.2.2 (b0a8486541, 2022-12-01)"
   xmlns:inkscape="http://www.inkscape.org/namespaces/inkscape"
   xmlns:sodipodi="http://sodipodi.sourceforge.net/DTD/sodipodi-0.dtd"
   xmlns="http://www.w3.org/2000/svg"
   xmlns:svg="http://www.w3.org/2000/svg">
  <defs
     id="defs8" />
  <sodipodi:namedview
     id="namedview6"
     pagecolor="#ffffff"
     bordercolor="#666666"
     borderopacity="1.0"
     inkscape:showpageshadow="2"
     inkscape:pageopacity="0.0"
     inkscape:pagecheckerboard="true"
     inkscape:deskcolor="#d1d1d1"
     showgrid="false"
     inkscape:zoom="1.1382634"
     inkscape:cx="312.31786"
     inkscape:cy="242.91389"
     inkscape:window-width="1920"
     inkscape:window-height="1022"
     inkscape:window-x="0"
     inkscape:window-y="36"
     inkscape:window-maximized="1"
     inkscape:current-layer="svg4" />
  <path
     d="M 124.561,0.3357377 C 123.76884,0.44765027 120.94677,0.83934426 118.37225,1.175082 79.506929,6.1551913 42.869553,31.055738 21.827818,66.755847 -3.1747146,109.0588 -6.9374722,167.58907 11.777295,221.3071 23.362627,254.43322 42.225923,284.87344 72.327984,319.00678 94.112369,343.62754 110.00507,358.90361 160.95082,404.11628 196.74653,435.89945 209.12402,447.76219 224.32358,464.99672 238.43392,480.94426 247.84081,494.48568 253.58397,507.1318 254.77221,509.8177 255.86143,512 256.00996,512 256.15849,512 257.00015,510.37727 257.89133,508.36284 265.31783,491.35213 280.5669,471.09596 302.79687,448.71344 315.32289,436.12328 324.63077,427.56197 358.74313,397.28962 403.3021,357.72852 418.50166,343.01202 439.93948,318.72699 463.11014,292.4835 478.3097,270.26885 490.58817,244.80874 511.08528,202.22601 517.17501,154.04765 507.52056,111.01727 501.97545,86.396503 491.47935,65.021202 476.08175,47.059235 450.18804,16.842842 414.44184,0 376.36868,0 331.85922,0 293.63753,23.053989 271.60559,63.230601 266.06048,73.414645 260.02026,88.802623 257.34672,99.658142 256.30702,103.79891 255.51486,105.30973 255.51486,103.07148 255.51486,100.55344 250.11827,84.382077 246.40502,75.820765 228.23487,33.909508 196.35045,8.2255738 153.52433,1.1191257 149.81108,0.50360656 127.38307,-0.11191257 124.561,0.3357377"
     id="path2"
     style="stroke-width:0.526345" />
</svg>
