<?xml version="1.0" encoding="UTF-8" standalone="no"?>
<svg
   version="1.0"
   width="512"
   height="512"
   viewBox="0 0 512 512"
   id="svg1"
   sodipodi:docname="network.svg"
   inkscape:version="1.2.2 (b0a8486541, 2022-12-01)"
   xmlns:inkscape="http://www.inkscape.org/namespaces/inkscape"
   xmlns:sodipodi="http://sodipodi.sourceforge.net/DTD/sodipodi-0.dtd"
   xmlns="http://www.w3.org/2000/svg"
   xmlns:svg="http://www.w3.org/2000/svg"
   xmlns:rdf="http://www.w3.org/1999/02/22-rdf-syntax-ns#"
   xmlns:cc="http://creativecommons.org/ns#"
   xmlns:dc="http://purl.org/dc/elements/1.1/">
  <metadata
     id="metadata1644">
    <rdf:RDF>
      <cc:Work
         rdf:about="">
        <dc:format>image/svg+xml</dc:format>
        <dc:type
           rdf:resource="http://purl.org/dc/dcmitype/StillImage" />
      </cc:Work>
    </rdf:RDF>
  </metadata>
  <defs
     id="defs1646">
    <rect
       x="-182.39339"
       y="-93.816755"
       width="871.30843"
       height="637.01766"
       id="rect2814" />
    <rect
       x="61.346863"
       y="72.093638"
       width="298.41164"
       height="284.08032"
       id="rect2756" />
    <rect
       x="-182.39339"
       y="-93.816757"
       width="871.30841"
       height="637.01764"
       id="rect2814-9" />
  </defs>
  <sodipodi:namedview
     pagecolor="#ffffff"
     bordercolor="#666666"
     borderopacity="1"
     objecttolerance="10"
     gridtolerance="10"
     guidetolerance="10"
     inkscape:pageopacity="0"
     inkscape:pageshadow="2"
     inkscape:window-width="1920"
     inkscape:window-height="1022"
     showgrid="false"
     inkscape:pagecheckerboard="true"
     inkscape:zoom="1.0896626"
     inkscape:cx="284.95059"
     inkscape:cy="245.48884"
     inkscape:window-x="0"
     inkscape:window-y="36"
     inkscape:window-maximized="1"
     inkscape:current-layer="svg1"
     showguides="true"
     id="namedview1652"
     inkscape:showpageshadow="2"
     inkscape:deskcolor="#d1d1d1">
    <sodipodi:guide
       position="385.121,384"
       orientation="0,1"
       inkscape:locked="false"
       inkscape:label=""
       inkscape:color="rgb(0,0,255)"
       id="guide1648" />
    <sodipodi:guide
       position="128,256"
       orientation="1,0"
       inkscape:locked="false"
       inkscape:label=""
       inkscape:color="rgb(0,0,255)"
       id="guide1650" />
  </sodipodi:namedview>
  <text
     xml:space="preserve"
     id="text2754"
     style="font-style:normal;font-weight:normal;font-size:40px;line-height:1.25;font-family:sans-serif;letter-spacing:0px;word-spacing:0px;white-space:pre;shape-inside:url(#rect2756);fill:#000000;fill-opacity:1;stroke:none" />
  <path
     id="text2812"
     style="font-style:normal;font-weight:normal;font-size:512px;line-height:1.25;font-family:sans-serif;letter-spacing:0px;word-spacing:0px;white-space:pre;shape-inside:url(#rect2814);fill:#000000;fill-opacity:1;stroke:none;stroke-width:0.534034"
     d="M 256,-1.1352303e-8 C 183.11458,43.602861 110.22917,87.20573 37.343751,130.80859 77.800781,130.80859 118.25781,130.80859 158.71484,130.80859 158.71484,196.56575 158.71484,262.3229 158.71484,328.08006 118.25781,328.08006 77.800781,328.08006 37.343751,328.08006 110.22916,371.68294 183.11459,415.2858 256,458.88868 328.88541,415.2858 401.77084,371.68294 474.65625,328.08006 434.19922,328.08006 393.74218,328.08006 353.28515,328.08006 353.28515,262.3229 353.28515,196.56575 353.28515,130.80859 393.74218,130.80859 434.19922,130.80859 474.65625,130.80859 401.77083,87.205731 328.88542,43.602861 256,-1.1352303e-8 Z M 512,395.60223 C 512,434.40149 512,473.20076 512,512.00002 501.33333,512.00002 490.66667,512.00002 480,512.00002 480,473.20076 480,434.40149 480,395.60223 490.66667,395.60223 501.33333,395.60223 512,395.60223 Z M 32,395.60223 C 32,434.40149 32,473.20076 32,512.00002 21.333333,512.00002 10.666667,512.00002 0,512.00002 0,473.20076 0,434.40149 0,395.60223 10.666667,395.60223 21.333333,395.60223 32,395.60223 Z M 0,480 C 170.66667,480 341.33333,480 512,480 512,490.66667 512,501.33333 512,512 341.33333,512 170.66667,512 0,512 0,501.33333 0,490.66667 0,480 Z" />
</svg>
