<svg xmlns="http://www.w3.org/2000/svg" width="512" height="512" viewBox="0 0 512 512"><style>path{fill:currentColor;}</style><path d="M124.561.336c-.792.112-3.614.503-6.189.84-38.865 4.98-75.502 29.88-96.544 65.58-25.003 42.303-28.765 100.833-10.05 154.551 11.585 33.126 30.448 63.566 60.55 97.7 21.784 24.62 37.677 39.897 88.623 85.11 35.796 31.782 48.173 43.645 63.373 60.88 14.11 15.947 23.517 29.489 29.26 42.135 1.188 2.686 2.277 4.868 2.426 4.868.148 0 .99-1.623 1.881-3.637 7.427-17.01 22.676-37.267 44.906-59.65 12.526-12.59 21.834-21.151 55.946-51.423 44.56-39.561 59.759-54.278 81.196-78.563 23.171-26.243 38.37-48.458 50.65-73.918 20.496-42.583 26.586-90.761 16.932-133.792-5.546-24.62-16.042-45.996-31.44-63.958C450.189 16.843 414.442 0 376.37 0c-44.51 0-82.731 23.054-104.763 63.23-5.546 10.185-11.586 25.573-14.26 36.428-1.039 4.14-1.831 5.652-1.831 3.413 0-2.518-5.397-18.689-9.11-27.25-18.17-41.911-50.055-67.595-92.88-74.702C149.81.504 127.382-.11 124.56.336"/></svg>
