<svg xmlns="http://www.w3.org/2000/svg" viewBox="0 0 512 512"><path d="M492.092 370.848c29.831-39.456 25.014-98.569-9.2-133.832-64.197-69.343-189.67-67.837-250.718 4.912-31.438 36.271-33.284 93.773-3.172 131.476 28.712 40.205 78.532 53.002 122.843 67.835 41.237 13.118 83.93 21.054 126.986 24.96l-26.312-58.804c15.323-9.545 29.148-21.741 39.573-36.547m-63.636 18.509c-9.948 2.928-13.877 7.976-6.846 16.882l11.732 26.223c-49.92-9.014-99.02-23.85-145.298-44.55-36.157-17.863-63.594-60.694-49.356-101.29 18.452-52.096 78.988-75.892 130.768-72.302 48.536 2.439 102.332 30.454 113.451 81.339 8.365 39.875-20.053 77.015-54.451 93.698M96.01 396.095l25.617-57.286c-46.562-20.739-89.415-61.588-93.507-114.92-5.19-56.088 35.882-105.524 84.332-128.325 77.932-37.854 181.454-27.716 243.614 35.2 13.001 10.113 19.88 31.947 29.627 39.919l23.17-9.642c-30.71-72.214-110.479-111.853-186.018-114.93-80.671-4.449-169.523 31.02-207.781 105.65-27.588 52.11-15.725 119.146 24.149 161.546 9.472 17.957 41.892 26.617 44.354 42.652l-32.956 73.685a806.2 806.2 0 0 0 161.643-31.922l-7.968-26.574c-35.503 10.626-71.635 19.296-108.276 24.947" style="fill:currentColor"/></svg>